<svg xmlns="http://www.w3.org/2000/svg" version="1.1" xmlns:xlink="http://www.w3.org/1999/xlink" xmlns:svgjs="http://svgjs.dev/svgjs" width="1500" height="935" viewBox="0 0 1500 935"><g transform="matrix(1,0,0,1,-0.9090909090909918,180.06344988344983)"><svg viewBox="0 0 396 247" data-background-color="#08090b" preserveAspectRatio="xMidYMid meet" height="935" width="1500" xmlns="http://www.w3.org/2000/svg" xmlns:xlink="http://www.w3.org/1999/xlink"><g id="tight-bounds" transform="matrix(1,0,0,1,0.2400000000000091,-0.09999999999999432)"><svg viewBox="0 0 395.52 247.2" height="247.2" width="395.52"><g><svg></svg></g><g><svg viewBox="0 0 395.52 247.2" height="247.2" width="395.52"><g transform="matrix(1,0,0,1,75.54432,74.05310270270272)"><svg viewBox="0 0 244.43135999999998 99.09379459459457" height="99.09379459459457" width="244.43135999999998"><g><svg viewBox="0 0 244.43135999999998 99.09379459459457" height="99.09379459459457" width="244.43135999999998"><g><svg viewBox="0 0 244.43135999999998 99.09379459459457" height="99.09379459459457" width="244.43135999999998"><g><svg viewBox="0 0 244.43135999999998 99.09379459459457" height="99.09379459459457" width="244.43135999999998"><g id="textblocktransform"><svg viewBox="0 0 244.43135999999998 99.09379459459457" height="99.09379459459457" width="244.43135999999998" id="textblock"><g><svg viewBox="0 0 244.43135999999998 99.09379459459457" height="99.09379459459457" width="244.43135999999998"><g transform="matrix(1,0,0,1,0,0)"><svg width="244.43135999999998" viewBox="0.45 -35 86.95 35.25" height="99.09379459459457" data-palette-color="#c310da"><path d="M0.45-29.95L0.45-35 28.5-35 28.5-29.95 17.4-29.95 17.4 0 11.5 0 11.5-29.95 0.45-29.95ZM50.05-35L50.05-10.75Q50.05-5.5 47.12-2.63 44.2 0.25 39.15 0.25L39.15 0.25Q36 0.25 33.4-1.07 30.8-2.4 28.85-4.75L28.85-4.75 31.65-9.05Q33.4-7.2 35.35-6.2 37.3-5.2 39.1-5.2L39.1-5.2Q41.45-5.2 42.77-6.68 44.1-8.15 44.1-10.9L44.1-10.9 44.1-29.95 32-29.95 32-35 50.05-35ZM58.5-35L72.7-35Q79.45-35 83.12-31.88 86.8-28.75 86.8-23.1L86.8-23.1Q86.8-17.2 83.12-13.93 79.45-10.65 72.7-10.65L72.7-10.65 64.4-10.65 64.4 0 58.5 0 58.5-35ZM64.4-15.7L72.7-15.7Q76.75-15.7 78.97-17.48 81.2-19.25 81.2-22.95L81.2-22.95Q81.2-26.5 78.97-28.23 76.75-29.95 72.7-29.95L72.7-29.95 64.4-29.95 64.4-15.7ZM80.7 0L72.9-12.95 78.7-12.95 87.4 0 80.7 0Z" opacity="1" transform="matrix(1,0,0,1,0,0)" fill="#c310da" class="wordmark-text-0" data-fill-palette-color="primary" id="text-0"></path></svg></g></svg></g></svg></g></svg></g><g></g></svg></g></svg></g></svg></g><g><path d="M99.697 50.659A122.216 122.216 0 0 1 295.823 50.659L286.887 50.659A113.279 113.279 0 0 0 108.633 50.659L99.697 50.659M99.697 196.541A122.216 122.216 0 0 0 295.823 196.541L286.887 196.541A113.279 113.279 0 0 1 108.633 196.541L99.697 196.541" fill="#dd00ff" stroke="transparent" data-fill-palette-color="tertiary"></path></g></svg></g><defs></defs></svg><rect width="395.52" height="247.2" fill="none" stroke="none" visibility="hidden"></rect></g></svg></g></svg>